<svg xmlns="http://www.w3.org/2000/svg" width="640" height="686" viewBox="0 0 640 686">
  <g id="gamepad-modern" transform="translate(-30 -79)">
    <rect id="사각형_1" data-name="사각형 1" width="640" height="686" transform="translate(30 79)" fill="none"/>
    <path id="gamepad-modern-2" data-name="gamepad-modern" d="M0,369.4v2.8a107.8,107.8,0,0,0,212.4,26.1L216,384H424l3.6,14.3A107.8,107.8,0,0,0,640,372.2v-2.8a106.515,106.515,0,0,0-1.6-18.7L605.7,159.8c-8.6-50.2-40.9-93.2-90.3-105.5C469.5,42.9,403.8,32,320,32S170.5,42.9,124.7,54.3C75.2,66.6,42.9,109.6,34.3,159.8L1.6,350.7A106.512,106.512,0,0,0,0,369.4ZM432,232a40,40,0,1,1-40,40A40,40,0,0,1,432,232Zm24-56a40,40,0,1,1,40,40,40,40,0,0,1-40-40Zm-240-8v32h32a24,24,0,0,1,0,48H216v32a24,24,0,0,1-48,0V248H136a24,24,0,0,1,0-48h32V168a24,24,0,0,1,48,0Z" transform="translate(30 140)" fill="#fff"/>
  </g>
</svg>
